<svg width="400" height="400" viewBox="0 0 400 400" fill="none" xmlns="http://www.w3.org/2000/svg">
<path d="M232.243 60.1894L233.118 61.1615L263.098 94.4805L263.849 95.315H262.727H237.263C234.495 95.315 232.312 93.0577 232.311 90.3648L232.243 60.1894ZM232.243 60.1894L232.246 61.497L232.311 90.3637L232.243 60.1894ZM280.556 103.094L280.586 103.563H281.055H324.455C333.473 103.563 340.715 110.866 340.778 119.824V295.253C340.778 304.207 333.474 311.511 324.521 311.511H240.994H240.337L240.512 312.144L250.135 346.969L250.236 347.336H250.617H269.993C272.269 347.336 274.075 349.141 274.075 351.418C274.075 353.695 272.269 355.5 269.993 355.5H247.147H143.131H120.286C118.009 355.5 116.204 353.695 116.204 351.418C116.204 349.141 118.009 347.336 120.286 347.336H139.662H140.043L140.144 346.969L149.767 312.144L149.941 311.511H149.285H65.7577C56.804 311.511 49.5 304.207 49.5 295.253V119.886C49.5 110.932 56.804 103.628 65.7577 103.628H109.092H109.592V103.128V67.7146C109.592 55.4879 119.58 45.5 131.807 45.5H228.098C229.275 45.5 230.376 45.9698 231.124 46.833L231.124 46.8331L231.131 46.8401L279.505 100.583L279.509 100.586C280.147 101.282 280.498 102.154 280.556 103.094ZM332.049 256.346H332.549V255.846V119.821C332.549 115.355 328.921 111.727 324.455 111.727H281.121H280.621V112.227V255.846V256.346H281.121H332.049ZM224.082 54.0989V53.5989H223.582H131.807C124.068 53.5989 117.757 59.9106 117.757 67.6491V255.846V256.346H118.257H271.891H272.391V255.846V105.027V104.838L272.266 104.696L271.284 103.583L271.135 103.414H270.909H237.197C229.945 103.414 224.082 97.55 224.082 90.2982V54.0989ZM109.592 112.227V111.727H109.092H65.7577C61.2922 111.727 57.6644 115.355 57.6644 119.821V255.846V256.346H58.1644H109.092H109.592V255.846V112.227ZM241.125 347.336H241.783L241.607 346.702L231.918 311.877L231.817 311.511H231.437H158.711H158.33L158.229 311.878L148.606 346.702L148.431 347.336H149.088H241.125ZM58.1644 264.511H57.6644V265.011V295.188C57.6644 299.653 61.2922 303.281 65.7577 303.281H324.455C328.922 303.281 332.544 299.654 332.614 295.196V295.188V265.011V264.511H332.114H58.1644Z" fill="#264653" stroke="#264653"/>
<path d="M149.235 215.349H129V222.408H149.235V215.349Z" fill="#264653"/>
<path d="M194.412 215.349H155.353V222.408H194.412V215.349Z" fill="#264653"/>
<path d="M246.647 215.349H201.47V222.408H246.647V215.349Z" fill="#264653"/>
<path d="M221.706 168.761H215.588V175.82H221.706V168.761Z" fill="#264653"/>
<path d="M209 168.761H156.294V175.82H209V168.761Z" fill="#264653"/>
<path d="M149.706 168.761H129V175.82H149.706V168.761Z" fill="#264653"/>
<path d="M247.118 168.761H228.294V175.82H247.118V168.761Z" fill="#264653"/>
<path d="M156.294 145.231H129V152.29H156.294V145.231Z" fill="#264653"/>
<path d="M246.647 145.231H208.059V152.29H246.647V145.231Z" fill="#264653"/>
<path d="M169.47 145.231H162.412V152.29H169.47V145.231Z" fill="#264653"/>
<path d="M184.529 145.231H177.47V152.29H184.529V145.231Z" fill="#264653"/>
<path d="M199.588 145.231H192.529V152.29H199.588V145.231Z" fill="#264653"/>
<path d="M229.706 192.29H213.706V199.349H229.706V192.29Z" fill="#264653"/>
<path d="M246.647 192.29H235.824V199.349H246.647V192.29Z" fill="#264653"/>
<path d="M173.235 192.29H129V199.349H173.235V192.29Z" fill="#264653"/>
<path d="M192.529 192.29H185.471V199.349H192.529V192.29Z" fill="#264653"/>
<path d="M207.588 192.29H200.529V199.349H207.588V192.29Z" fill="#264653"/>
<path d="M206.647 118.878L228.294 103.349L207.118 87.8195L202.882 93.9371L216.059 103.349L202.412 113.231L206.647 118.878Z" fill="#264653"/>
<path d="M169.47 112.761L155.823 102.878L169.47 93.4665L165.235 87.8195L143.588 102.878L165.235 118.408L169.47 112.761Z" fill="#264653"/>
<path d="M201.758 80.1715L195.451 77L170.502 126.61L176.808 129.781L201.758 80.1715Z" fill="#264653"/>
</svg>
